<?xml version="1.0" standalone="no"?>
<!DOCTYPE svg PUBLIC "-//W3C//DTD SVG 20010904//EN"
 "http://www.w3.org/TR/2001/REC-SVG-20010904/DTD/svg10.dtd">
<svg version="1.0" xmlns="http://www.w3.org/2000/svg"
 width="658.000000pt" height="269.000000pt" viewBox="0 0 658.000000 269.000000"
 preserveAspectRatio="xMidYMid meet">

<g transform="translate(0.000000,269.000000) scale(0.100000,-0.100000)"
fill="#000000" stroke="none">
<path d="M2129 2600 c-56 -17 -1856 -935 -1896 -967 -126 -101 -128 -247 -4
-366 20 -20 455 -280 966 -578 l930 -543 60 0 c80 -1 138 31 180 98 26 43 30
59 30 121 0 62 -4 78 -30 120 -20 32 -52 64 -93 91 -143 96 -350 287 -446 412
-232 304 -237 571 -12 819 83 91 240 206 408 297 106 57 162 116 184 194 54
186 -101 356 -277 302z"/>
<path d="M3520 1530 l0 -440 45 0 45 0 2 161 3 161 100 -158 100 -159 54 -3
53 -3 -107 157 c-58 86 -107 160 -108 164 -1 4 25 45 59 91 33 46 77 108 98
137 l38 52 -45 0 -46 0 -91 -130 c-51 -72 -96 -133 -101 -136 -5 -3 -9 109 -9
270 l0 276 -45 0 -45 0 0 -440z"/>
<path d="M4863 1850 l-42 -14 -3 -71 c-3 -68 -4 -70 -30 -73 -24 -3 -28 -8
-28 -33 0 -26 3 -29 30 -29 l30 0 0 -221 c0 -184 3 -227 16 -255 21 -43 59
-64 119 -64 45 0 45 0 45 35 0 32 -2 35 -29 35 -56 0 -61 20 -61 257 l0 213
45 0 c43 0 45 1 45 30 0 29 -2 30 -45 30 l-44 0 -3 88 -3 87 -42 -15z"/>
<path d="M4130 1702 c-47 -5 -110 -25 -120 -37 -7 -9 -7 -20 1 -38 11 -24 13
-24 45 -11 18 8 56 14 84 14 61 0 95 -27 105 -84 10 -52 2 -62 -52 -70 -106
-14 -205 -87 -219 -161 -17 -93 14 -177 79 -213 47 -25 189 -24 242 3 l40 20
0 225 c0 205 -2 229 -20 264 -11 22 -32 49 -47 59 -28 21 -94 34 -138 29z
m118 -409 l-3 -137 -34 -9 c-47 -12 -98 -1 -127 28 -20 20 -24 34 -24 82 0 65
13 97 51 125 21 16 98 43 132 47 4 1 6 -61 5 -136z"/>
<path d="M4610 1700 c-36 -4 -80 -14 -97 -24 l-33 -17 0 -284 0 -285 45 0 45
0 0 264 c0 295 -5 276 76 276 47 0 44 -3 58 66 2 10 -20 11 -94 4z"/>
<path d="M5250 1702 c-47 -5 -110 -25 -120 -37 -7 -9 -7 -20 1 -38 11 -24 13
-24 45 -11 18 8 56 14 84 14 61 0 95 -27 105 -84 10 -52 2 -62 -52 -70 -106
-14 -205 -87 -219 -161 -17 -93 14 -177 79 -213 47 -25 189 -24 242 3 l40 20
0 225 c0 205 -2 229 -20 264 -11 22 -32 49 -47 59 -28 21 -94 34 -138 29z
m118 -409 l-3 -137 -34 -9 c-47 -12 -98 -1 -127 28 -20 20 -24 34 -24 82 0 65
13 97 51 125 21 16 98 43 132 47 4 1 6 -61 5 -136z"/>
<path d="M5739 1700 c-53 -9 -95 -44 -123 -103 -66 -135 -52 -364 27 -453 55
-64 137 -82 207 -46 28 13 34 22 32 42 -4 34 -16 44 -40 31 -65 -35 -131 4
-157 92 -19 65 -19 209 0 275 24 81 88 113 160 80 29 -13 31 -12 40 24 5 21 2
29 -17 39 -33 18 -87 26 -129 19z"/>
<path d="M6130 1702 c-47 -5 -110 -25 -120 -37 -7 -9 -7 -20 1 -38 11 -24 13
-24 45 -11 18 8 56 14 84 14 61 0 95 -27 105 -84 10 -52 2 -62 -52 -70 -106
-14 -205 -87 -219 -161 -17 -93 14 -177 79 -213 47 -25 189 -24 242 3 l40 20
0 225 c0 205 -2 229 -20 264 -11 22 -32 49 -47 59 -28 21 -94 34 -138 29z
m118 -409 l-3 -137 -34 -9 c-47 -12 -98 -1 -127 28 -20 20 -24 34 -24 82 0 65
13 97 51 125 21 16 98 43 132 47 4 1 6 -61 5 -136z"/>
</g>
</svg>
